<mxfile host="app.diagrams.net" modified="2023-01-15T05:53:45.438Z" agent="5.0 (Macintosh; Intel Mac OS X 10_15_7) AppleWebKit/537.36 (KHTML, like Gecko) Chrome/108.0.0.0 Safari/537.36" etag="RfiX-lcnt1u5NEwF49D7" version="20.8.5" type="github">
  <diagram name="HCL Entities" id="b5b7bab2-c9e2-2cf4-8b2a-24fd1a2a6d21">
    <mxGraphModel dx="1388" dy="1167" grid="1" gridSize="10" guides="1" tooltips="1" connect="1" arrows="1" fold="1" page="1" pageScale="1" pageWidth="827" pageHeight="1169" background="none" math="0" shadow="0">
      <root>
        <mxCell id="0" />
        <mxCell id="1" parent="0" />
        <mxCell id="6e0c8c40b5770093-72" value="" style="shape=folder;fontStyle=1;spacingTop=10;tabWidth=116;tabHeight=30;tabPosition=left;html=1;rounded=0;shadow=0;comic=0;labelBackgroundColor=#eba50f;strokeWidth=1;fillColor=#dae8fc;fontFamily=Verdana;fontSize=10;align=center;strokeColor=#6c8ebf;" parent="1" vertex="1">
          <mxGeometry x="414" width="716" height="340" as="geometry" />
        </mxCell>
        <mxCell id="6e0c8c40b5770093-73" value="&lt;i&gt;&amp;lt;&amp;lt;Provider&amp;gt;&amp;gt;&lt;/i&gt;&lt;br&gt;&lt;b&gt;AWS&lt;/b&gt;" style="text;html=1;align=center;verticalAlign=top;spacingTop=-4;fontSize=10;fontFamily=Verdana" parent="1" vertex="1">
          <mxGeometry x="420" y="1" width="100" height="20" as="geometry" />
        </mxCell>
        <mxCell id="8DxuIP61aGuZQ9pdNn55-4" value="&lt;p style=&quot;margin:0px;margin-top:4px;text-align:center;&quot;&gt;&lt;i&gt;&amp;lt;&amp;lt;Resource Type&amp;gt;&amp;gt;&lt;/i&gt;&lt;br&gt;&lt;b&gt;aws_instance&lt;/b&gt;&lt;/p&gt;&lt;hr size=&quot;1&quot;&gt;&lt;p style=&quot;margin:0px;margin-left:4px;&quot;&gt;+ name: string&lt;br&gt;+ ami: string&lt;/p&gt;&lt;p style=&quot;margin:0px;margin-left:4px;&quot;&gt;+ instance_type: string&amp;nbsp;&lt;/p&gt;&lt;hr size=&quot;1&quot;&gt;&lt;p style=&quot;margin:0px;margin-left:4px;&quot;&gt;+ arn : string&lt;br&gt;+ public_ip: string&lt;/p&gt;" style="verticalAlign=top;align=left;overflow=fill;fontSize=12;fontFamily=Helvetica;html=1;fillColor=#fff2cc;strokeColor=#d6b656;" vertex="1" parent="1">
          <mxGeometry x="700" y="170" width="190" height="140" as="geometry" />
        </mxCell>
        <mxCell id="8DxuIP61aGuZQ9pdNn55-5" value="&lt;p style=&quot;margin:0px;margin-top:4px;text-align:center;&quot;&gt;&lt;i&gt;&amp;lt;&amp;lt;Resource Type&amp;gt;&amp;gt;&lt;/i&gt;&lt;br&gt;&lt;b&gt;aws_vpc&lt;/b&gt;&lt;/p&gt;&lt;hr size=&quot;1&quot;&gt;&lt;p style=&quot;margin:0px;margin-left:4px;&quot;&gt;+ cidr_block: string&lt;br&gt;&lt;/p&gt;&lt;hr size=&quot;1&quot;&gt;&lt;p style=&quot;margin:0px;margin-left:4px;&quot;&gt;+ id : string&lt;br&gt;&lt;/p&gt;" style="verticalAlign=top;align=left;overflow=fill;fontSize=12;fontFamily=Helvetica;html=1;fillColor=#fff2cc;strokeColor=#d6b656;" vertex="1" parent="1">
          <mxGeometry x="440" y="60" width="190" height="100" as="geometry" />
        </mxCell>
        <mxCell id="8DxuIP61aGuZQ9pdNn55-8" value="«Resource»&lt;br&gt;&lt;b&gt;web_server&lt;/b&gt;" style="html=1;" vertex="1" parent="1">
          <mxGeometry x="740" y="360" width="110" height="50" as="geometry" />
        </mxCell>
        <mxCell id="8DxuIP61aGuZQ9pdNn55-9" value="" style="endArrow=open;endFill=1;endSize=12;html=1;rounded=0;entryX=0.5;entryY=0;entryDx=0;entryDy=0;exitX=0.5;exitY=1;exitDx=0;exitDy=0;" edge="1" parent="1" source="8DxuIP61aGuZQ9pdNn55-4" target="8DxuIP61aGuZQ9pdNn55-8">
          <mxGeometry width="160" relative="1" as="geometry">
            <mxPoint x="540" y="500" as="sourcePoint" />
            <mxPoint x="700" y="500" as="targetPoint" />
          </mxGeometry>
        </mxCell>
        <mxCell id="8DxuIP61aGuZQ9pdNn55-10" value="&lt;p style=&quot;margin:0px;margin-top:4px;text-align:center;&quot;&gt;&lt;i&gt;&amp;lt;&amp;lt;Resource Type&amp;gt;&amp;gt;&lt;/i&gt;&lt;br&gt;&lt;b&gt;aws_subnet&lt;/b&gt;&lt;/p&gt;&lt;hr size=&quot;1&quot;&gt;&lt;p style=&quot;margin:0px;margin-left:4px;&quot;&gt;+ vpc_id: string&lt;br&gt;&lt;/p&gt;&lt;p style=&quot;margin:0px;margin-left:4px;&quot;&gt;+ cidr_block: string&lt;/p&gt;&lt;hr size=&quot;1&quot;&gt;&lt;p style=&quot;margin:0px;margin-left:4px;&quot;&gt;+ id : string&lt;br&gt;&lt;/p&gt;" style="verticalAlign=top;align=left;overflow=fill;fontSize=12;fontFamily=Helvetica;html=1;fillColor=#fff2cc;strokeColor=#d6b656;" vertex="1" parent="1">
          <mxGeometry x="440" y="210" width="190" height="110" as="geometry" />
        </mxCell>
        <mxCell id="8DxuIP61aGuZQ9pdNn55-12" value="«Resource»&lt;br&gt;&lt;b&gt;hub_vpc&lt;/b&gt;" style="html=1;" vertex="1" parent="1">
          <mxGeometry x="490" y="360" width="110" height="50" as="geometry" />
        </mxCell>
        <mxCell id="8DxuIP61aGuZQ9pdNn55-16" value="1" style="endArrow=open;html=1;endSize=12;startArrow=diamondThin;startSize=14;startFill=1;edgeStyle=orthogonalEdgeStyle;align=left;verticalAlign=bottom;rounded=0;" edge="1" parent="1" source="8DxuIP61aGuZQ9pdNn55-10" target="8DxuIP61aGuZQ9pdNn55-5">
          <mxGeometry x="-1" y="15" relative="1" as="geometry">
            <mxPoint x="350" y="200" as="sourcePoint" />
            <mxPoint x="510" y="200" as="targetPoint" />
            <mxPoint as="offset" />
          </mxGeometry>
        </mxCell>
        <mxCell id="8DxuIP61aGuZQ9pdNn55-17" value="«Resource»&lt;br&gt;&lt;b&gt;public_snet&lt;/b&gt;" style="html=1;" vertex="1" parent="1">
          <mxGeometry x="490" y="456" width="110" height="50" as="geometry" />
        </mxCell>
        <mxCell id="8DxuIP61aGuZQ9pdNn55-19" value="Use" style="endArrow=open;endSize=12;dashed=1;html=1;rounded=0;exitX=0.5;exitY=0;exitDx=0;exitDy=0;entryX=0.5;entryY=1;entryDx=0;entryDy=0;" edge="1" parent="1" source="8DxuIP61aGuZQ9pdNn55-17" target="8DxuIP61aGuZQ9pdNn55-12">
          <mxGeometry width="160" relative="1" as="geometry">
            <mxPoint x="540" y="460" as="sourcePoint" />
            <mxPoint x="700" y="460" as="targetPoint" />
          </mxGeometry>
        </mxCell>
        <mxCell id="8DxuIP61aGuZQ9pdNn55-20" value="" style="endArrow=open;endFill=1;endSize=12;html=1;rounded=0;entryX=0;entryY=0.5;entryDx=0;entryDy=0;exitX=0;exitY=0.6;exitDx=0;exitDy=0;exitPerimeter=0;edgeStyle=orthogonalEdgeStyle;" edge="1" parent="1" source="8DxuIP61aGuZQ9pdNn55-5" target="8DxuIP61aGuZQ9pdNn55-12">
          <mxGeometry width="160" relative="1" as="geometry">
            <mxPoint x="350" y="130" as="sourcePoint" />
            <mxPoint x="330" y="385" as="targetPoint" />
            <Array as="points">
              <mxPoint x="400" y="120" />
              <mxPoint x="400" y="385" />
            </Array>
          </mxGeometry>
        </mxCell>
        <mxCell id="8DxuIP61aGuZQ9pdNn55-21" value="" style="endArrow=open;endFill=1;endSize=12;html=1;rounded=0;entryX=0;entryY=0.5;entryDx=0;entryDy=0;exitX=0.005;exitY=0.609;exitDx=0;exitDy=0;exitPerimeter=0;edgeStyle=orthogonalEdgeStyle;" edge="1" parent="1" source="8DxuIP61aGuZQ9pdNn55-10" target="8DxuIP61aGuZQ9pdNn55-17">
          <mxGeometry width="160" relative="1" as="geometry">
            <mxPoint x="430" y="280" as="sourcePoint" />
            <mxPoint x="480" y="545" as="targetPoint" />
            <Array as="points">
              <mxPoint x="430" y="277" />
              <mxPoint x="430" y="481" />
            </Array>
          </mxGeometry>
        </mxCell>
        <mxCell id="8DxuIP61aGuZQ9pdNn55-22" value="Use" style="endArrow=open;endSize=12;dashed=1;html=1;rounded=0;exitX=0;exitY=0.5;exitDx=0;exitDy=0;entryX=1;entryY=0.5;entryDx=0;entryDy=0;" edge="1" parent="1" source="8DxuIP61aGuZQ9pdNn55-8" target="8DxuIP61aGuZQ9pdNn55-17">
          <mxGeometry width="160" relative="1" as="geometry">
            <mxPoint x="555" y="480" as="sourcePoint" />
            <mxPoint x="555" y="420" as="targetPoint" />
          </mxGeometry>
        </mxCell>
        <mxCell id="8DxuIP61aGuZQ9pdNn55-23" value="&lt;p style=&quot;margin:0px;margin-top:4px;text-align:center;&quot;&gt;&lt;i&gt;&amp;lt;&amp;lt;Data Source Type&amp;gt;&amp;gt;&lt;/i&gt;&lt;br&gt;&lt;b&gt;aws_key_pair&lt;/b&gt;&lt;/p&gt;&lt;hr size=&quot;1&quot;&gt;&lt;p style=&quot;margin:0px;margin-left:4px;&quot;&gt;+ name: string&lt;br&gt;+ ami: string&lt;/p&gt;&lt;p style=&quot;margin:0px;margin-left:4px;&quot;&gt;+ instance_type: string&amp;nbsp;&lt;/p&gt;&lt;hr size=&quot;1&quot;&gt;&lt;p style=&quot;margin:0px;margin-left:4px;&quot;&gt;+ arn : string&lt;br&gt;+ public_ip: string&lt;/p&gt;" style="verticalAlign=top;align=left;overflow=fill;fontSize=12;fontFamily=Helvetica;html=1;fillColor=#d5e8d4;strokeColor=#82b366;" vertex="1" parent="1">
          <mxGeometry x="920" y="170" width="190" height="140" as="geometry" />
        </mxCell>
        <mxCell id="8DxuIP61aGuZQ9pdNn55-25" value="«Resource»&lt;br&gt;&lt;b&gt;db_server&lt;/b&gt;" style="html=1;" vertex="1" parent="1">
          <mxGeometry x="740" y="440" width="110" height="50" as="geometry" />
        </mxCell>
        <mxCell id="8DxuIP61aGuZQ9pdNn55-26" value="«Resource»&lt;br&gt;&lt;b&gt;public_snet&lt;/b&gt;" style="html=1;" vertex="1" parent="1">
          <mxGeometry x="490" y="530" width="110" height="50" as="geometry" />
        </mxCell>
        <mxCell id="8DxuIP61aGuZQ9pdNn55-27" value="Use" style="endArrow=open;endSize=12;dashed=1;html=1;rounded=0;exitX=0;exitY=0.5;exitDx=0;exitDy=0;entryX=1;entryY=0.5;entryDx=0;entryDy=0;" edge="1" parent="1" source="8DxuIP61aGuZQ9pdNn55-25" target="8DxuIP61aGuZQ9pdNn55-26">
          <mxGeometry width="160" relative="1" as="geometry">
            <mxPoint x="750" y="395" as="sourcePoint" />
            <mxPoint x="610" y="491" as="targetPoint" />
          </mxGeometry>
        </mxCell>
        <mxCell id="8DxuIP61aGuZQ9pdNn55-28" value="«Data Source»&lt;br&gt;&lt;b&gt;dev_key_pair&lt;/b&gt;" style="html=1;" vertex="1" parent="1">
          <mxGeometry x="960" y="400" width="110" height="50" as="geometry" />
        </mxCell>
        <mxCell id="8DxuIP61aGuZQ9pdNn55-29" value="Use" style="endArrow=open;endSize=12;dashed=1;html=1;rounded=0;exitX=1;exitY=0.5;exitDx=0;exitDy=0;entryX=0;entryY=0.5;entryDx=0;entryDy=0;" edge="1" parent="1" source="8DxuIP61aGuZQ9pdNn55-8" target="8DxuIP61aGuZQ9pdNn55-28">
          <mxGeometry width="160" relative="1" as="geometry">
            <mxPoint x="750" y="395" as="sourcePoint" />
            <mxPoint x="610" y="491" as="targetPoint" />
          </mxGeometry>
        </mxCell>
        <mxCell id="8DxuIP61aGuZQ9pdNn55-30" value="Use" style="endArrow=open;endSize=12;dashed=1;html=1;rounded=0;exitX=1;exitY=0.5;exitDx=0;exitDy=0;entryX=0;entryY=0.75;entryDx=0;entryDy=0;" edge="1" parent="1" source="8DxuIP61aGuZQ9pdNn55-25" target="8DxuIP61aGuZQ9pdNn55-28">
          <mxGeometry width="160" relative="1" as="geometry">
            <mxPoint x="860" y="395" as="sourcePoint" />
            <mxPoint x="920" y="415" as="targetPoint" />
          </mxGeometry>
        </mxCell>
        <mxCell id="8DxuIP61aGuZQ9pdNn55-31" value="" style="endArrow=open;endFill=1;endSize=12;html=1;rounded=0;edgeStyle=orthogonalEdgeStyle;" edge="1" parent="1" source="8DxuIP61aGuZQ9pdNn55-23" target="8DxuIP61aGuZQ9pdNn55-28">
          <mxGeometry width="160" relative="1" as="geometry">
            <mxPoint x="805" y="320" as="sourcePoint" />
            <mxPoint x="805" y="370" as="targetPoint" />
          </mxGeometry>
        </mxCell>
      </root>
    </mxGraphModel>
  </diagram>
</mxfile>
